<?xml version="1.0" standalone="no"?>
<!DOCTYPE svg PUBLIC "-//W3C//DTD SVG 20010904//EN"
 "http://www.w3.org/TR/2001/REC-SVG-20010904/DTD/svg10.dtd">
<svg version="1.0" xmlns="http://www.w3.org/2000/svg"
 width="700.000000pt" height="700.000000pt" viewBox="0 0 700.000000 700.000000"
 preserveAspectRatio="xMidYMid meet">
<metadata>
Created by potrace 1.11, written by Peter Selinger 2001-2013
</metadata>
<g transform="translate(0.000000,700.000000) scale(0.100000,-0.100000)"
fill="#000000" stroke="none">
<path d="M3285 6994 c-305 -30 -421 -48 -632 -100 -773 -189 -1470 -653 -1960
-1306 -361 -481 -589 -1052 -669 -1683 -25 -196 -25 -614 0 -810 87 -681 334
-1267 755 -1795 94 -117 316 -346 436 -450 533 -458 1162 -734 1880 -826 196
-25 614 -25 810 0 547 70 1014 236 1473 524 419 263 821 667 1089 1097 273
438 441 915 509 1450 25 196 25 614 0 810 -70 547 -236 1014 -524 1473 -226
361 -572 725 -932 979 -475 336 -1013 542 -1610 618 -117 15 -536 28 -625 19z
m1925 -2490 c0 -4 -244 -458 -542 -1010 l-543 -1003 -1167 -1 c-643 0 -1168 3
-1168 7 0 4 244 458 543 1010 l542 1002 1168 1 c642 0 1167 -3 1167 -6z"/>
</g>
</svg>
